# xmcd
#
# Track frame offsets: 
#        150
#        17397
#        35120
#        52677
#        73477
#        90330
#        106557
#        122912
#        138682
#        154577
#        171687
#
# Disc length: 2529 seconds
#
# Revision: 2
# Processed by: cddbd v1.5.2PL0 Copyright (c) Steve Scherf et al.
# Submitted via: ExactAudioCopy v1.0b1
#
DISCID=9009df0b
DTITLE=Nando Cordel - Especial
DYEAR=2003
DGENRE=Country
TTITLE0=Bateu de Close
TTITLE1=Aumenta o Meu Salario
TTITLE2=Volta Pra Casa
TTITLE3=Eh Tao Bom Te Amar
TTITLE4=O povo Soh Faz Dancar
TTITLE5=Mensagem de Aviao
TTITLE6=Redea Solta
TTITLE7=Nao Quero Mais Sofrer
TTITLE8=Vigiando Voce
TTITLE9=Simbora, bora, bora
TTITLE10=Sera Que eh Esse
EXTD=
EXTT0=
EXTT1=
EXTT2=
EXTT3=
EXTT4=
EXTT5=
EXTT6=
EXTT7=
EXTT8=
EXTT9=
EXTT10=
PLAYORDER=
